<svg width="173" height="173" viewBox="0 0 173 173" fill="none" xmlns="http://www.w3.org/2000/svg">
<path fill-rule="evenodd" clip-rule="evenodd" d="M173 96C173 98.2091 171.209 100 169 100H4C1.79086 100 0 98.2091 0 96V77C0 74.7909 1.79087 73 4.00001 73H169C171.209 73 173 74.7909 173 77V96Z" fill="black"/>
<path fill-rule="evenodd" clip-rule="evenodd" d="M154.593 31.934C156.155 33.4961 156.155 36.0287 154.593 37.5908L37.9203 154.263C36.3582 155.826 33.8256 155.826 32.2635 154.263L18.8284 140.828C17.2663 139.266 17.2663 136.734 18.8284 135.172L135.501 18.499C137.063 16.9369 139.596 16.9369 141.158 18.499L154.593 31.934Z" fill="black"/>
<path fill-rule="evenodd" clip-rule="evenodd" d="M96 -1.00536e-06C98.2091 -1.10193e-06 100 1.79086 100 4L100 169C100 171.209 98.2091 173 96 173L77 173C74.7909 173 73 171.209 73 169L73 4C73 1.79086 74.7909 -7.8281e-08 77 -1.74846e-07L96 -1.00536e-06Z" fill="black"/>
<path fill-rule="evenodd" clip-rule="evenodd" d="M31.934 18.4071C33.4961 16.845 36.0287 16.845 37.5908 18.4071L154.263 135.08C155.826 136.642 155.826 139.174 154.263 140.737L140.828 154.172C139.266 155.734 136.734 155.734 135.172 154.172L18.499 37.499C16.9369 35.9369 16.9369 33.4042 18.499 31.8421L31.934 18.4071Z" fill="black"/>
</svg>
